<svg height="512" viewBox="0 0 192 192" width="512" xmlns="http://www.w3.org/2000/svg"><g id="_27-creativity" data-name="27-creativity"><g id="Glyph"><path d="m56 176a16 16 0 0 0 16 16h48a16 16 0 0 0 16-16v-8h-80z"/><path d="m56 144h80v16h-80z"/><path d="m96 0a64 64 0 0 0 -32 119.427v16.573h24v-43.719l-20.438-13.625a8 8 0 0 1 -3.562-6.656v-16h16v11.719l16 10.666 16-10.666v-11.719h16v16a8 8 0 0 1 -3.563 6.656l-20.437 13.625v43.719h24v-16.573a64 64 0 0 0 -32-119.427zm24 40a8 8 0 1 1 8-8 8 8 0 0 1 -8 8z"/></g></g></svg>