<?xml version="1.0" encoding="iso-8859-1"?>
<!-- Generator: Adobe Illustrator 19.0.0, SVG Export Plug-In . SVG Version: 6.00 Build 0)  -->
<svg version="1.1" id="Layer_1" xmlns="http://www.w3.org/2000/svg" xmlns:xlink="http://www.w3.org/1999/xlink" x="0px" y="0px"
	 viewBox="0 0 330 330" style="enable-background:new 0 0 330 330;" xml:space="preserve">
<g id="XMLID_21_">
	<path id="XMLID_22_" d="M15,240h45h30h165c8.284,0,15-6.716,15-15V120V90V52.5L240,75l-96,72c-2.666,2-5.834,3-9,3s-6.334-1-9-3
		L30,75L0,52.5V225C0,233.284,6.716,240,15,240z"/>
	<path id="XMLID_23_" d="M315,90h-15v30v105c0,24.813-20.188,45-45,45H90H60v15c0,8.284,6.716,15,15,15h240c8.284,0,15-6.716,15-15
		V105C330,96.716,323.284,90,315,90z"/>
	<polygon id="XMLID_24_" points="60,60 135,116.25 210,60 222,51 250,30 20,30 48,51 	"/>
</g>
<g>
</g>
<g>
</g>
<g>
</g>
<g>
</g>
<g>
</g>
<g>
</g>
<g>
</g>
<g>
</g>
<g>
</g>
<g>
</g>
<g>
</g>
<g>
</g>
<g>
</g>
<g>
</g>
<g>
</g>
</svg>
