<svg height="512" viewBox="0 0 512 512" width="512" xmlns="http://www.w3.org/2000/svg"><g id="flat"><rect fill="#009cf7" height="304" rx="10" width="464" x="24" y="56"/><g fill="#029532"><path d="m56 88h320v240h-320z"/><path d="m376 132.64v22.68l-10.34 10.34a8.008 8.008 0 0 1 -5.66 2.34h-19.72l-13.62 20.44a8.01 8.01 0 0 1 -13.32 0l-13.62-20.44h-11.72a7.99 7.99 0 0 1 -7.84-6.43l-4.64-23.17-21.27 26.6a8 8 0 0 1 -6.25 3h-32a8.011 8.011 0 0 1 -7.16-4.42l-3.03-6.08-8.15 8.16a8.008 8.008 0 0 1 -5.66 2.34h-11.06l-5.78 11.58a8 8 0 0 1 -14.85-1.38l-9.57-33.5-7.31 18.27a8.006 8.006 0 0 1 -7.43 5.03h-32a8.033 8.033 0 0 1 -6.66-3.56l-9.34-14.02-9.34 14.02a8.033 8.033 0 0 1 -6.66 3.56h-16v-16h11.72l13.62-20.44a8.01 8.01 0 0 1 13.32 0l13.62 20.44h22.3l13.99-34.97a8 8 0 0 1 15.12.77l10.49 36.71a7.989 7.989 0 0 1 5.82-2.51h12.69l13.65-13.66a8.007 8.007 0 0 1 12.82 2.08l5.78 11.58h23.21l29.6-37a8 8 0 0 1 14.09 3.43l6.72 33.57h9.44a8.033 8.033 0 0 1 6.66 3.56l9.34 14.02 9.34-14.02a8.033 8.033 0 0 1 6.66-3.56h20.69z"/><path d="m376 254.38v17.62a7.985 7.985 0 0 1 -4.44-1.34l-21.98-14.66h-29.58a8.011 8.011 0 0 1 -7.16-4.42l-15.79-31.59-17.56 46.82a8 8 0 0 1 -13.15 2.85l-13.65-13.66h-24.41l-13.62 20.44a8.023 8.023 0 0 1 -6.66 3.56 7.549 7.549 0 0 1 -1.06-.07 8.012 8.012 0 0 1 -6.53-5.4l-10.83-32.48-6.92 10.39a8.033 8.033 0 0 1 -6.66 3.56h-64a8.009 8.009 0 0 1 -6.4-3.2l-13.92-18.55-3.92 15.69a8 8 0 0 1 -7.76 6.06h-24v-16h17.75l6.49-25.94a8 8 0 0 1 14.16-2.86l21.6 28.8h55.72l13.62-20.44a8 8 0 0 1 14.25 1.91l10.83 32.48 6.92-10.39a8.033 8.033 0 0 1 6.66-3.56h32a8.008 8.008 0 0 1 5.66 2.34l7.21 7.22 19.64-52.37a8 8 0 0 1 14.65-.77l21.78 43.58h27.06a8.066 8.066 0 0 1 4.44 1.34z"/></g><circle cx="432" cy="120" fill="#007af6" r="29.166"/><circle cx="432" cy="120" fill="#dbdbdb" r="20.624"/><path d="m408 184h48v48h-48z" fill="#fbb540"/><path d="m408 232h48v48h-48z" fill="#ea9d2d"/><path d="m408 280h48v48h-48z" fill="#d18d28"/><path d="m374 328h-318v-8h320z" fill="#027e2a"/><path d="m366.731 88h9.269v240h-9.269z" fill="#027e2a"/><circle cx="256" cy="384" fill="#f55648" r="80"/>
<path d="m256 430.963-42.186-39.173a18.194 18.194 0 0 1 -2.758-23.424 22.587 22.587 0 0 1 18.793-10.057 22.588 22.588 0 0 1 17.637 8.476l8.514 10.643 8.514-10.643a22.588 22.588 0 0 1 17.637-8.476 22.587 22.587 0 0 1 18.793 10.057 18.194 18.194 0 0 1 -2.758 23.424z" fill="#000000">
<animate attributeType="CSS" attributeName="opacity" from="1" to="0" dur="0.8s" fill= "freeze" repeatCount="indefinite" />
</path>
<path d="m376 132.64v22.68l-10.34 10.34a8.008 8.008 0 0 1 -5.66 2.34h-19.72l-13.62 20.44a8.01 8.01 0 0 1 -13.32 0l-13.62-20.44h-11.72a7.99 7.99 0 0 1 -7.84-6.43l-4.64-23.17-21.27 26.6a8 8 0 0 1 -6.25 3h-32a8.011 8.011 0 0 1 -7.16-4.42l-3.03-6.08-8.15 8.16a8.008 8.008 0 0 1 -5.66 2.34h-11.06l-5.78 11.58a8 8 0 0 1 -14.85-1.38l-9.57-33.5-7.31 18.27a8.006 8.006 0 0 1 -7.43 5.03h-32a8.033 8.033 0 0 1 -6.66-3.56l-9.34-14.02-9.34 14.02a8.033 8.033 0 0 1 -6.66 3.56h-16v-16h11.72l13.62-20.44a8.01 8.01 0 0 1 13.32 0l13.62 20.44h22.3l13.99-34.97a8 8 0 0 1 15.12.77l10.49 36.71a7.989 7.989 0 0 1 5.82-2.51h12.69l13.65-13.66a8.007 8.007 0 0 1 12.82 2.08l5.78 11.58h23.21l29.6-37a8 8 0 0 1 14.09 3.43l6.72 33.57h9.44a8.033 8.033 0 0 1 6.66 3.56l9.34 14.02 9.34-14.02a8.033 8.033 0 0 1 6.66-3.56h20.69z" fill="#026a23"/><path d="m376 254.38v17.62a7.985 7.985 0 0 1 -4.44-1.34l-21.98-14.66h-29.58a8.011 8.011 0 0 1 -7.16-4.42l-15.79-31.59-17.56 46.82a8 8 0 0 1 -13.15 2.85l-13.65-13.66h-24.41l-13.62 20.44a8.023 8.023 0 0 1 -6.66 3.56 7.549 7.549 0 0 1 -1.06-.07 8.012 8.012 0 0 1 -6.53-5.4l-10.83-32.48-6.92 10.39a8.033 8.033 0 0 1 -6.66 3.56h-64a8.009 8.009 0 0 1 -6.4-3.2l-13.92-18.55-3.92 15.69a8 8 0 0 1 -7.76 6.06h-24v-16h17.75l6.49-25.94a8 8 0 0 1 14.16-2.86l21.6 28.8h55.72l13.62-20.44a8 8 0 0 1 14.25 1.91l10.83 32.48 6.92-10.39a8.033 8.033 0 0 1 6.66-3.56h32a8.008 8.008 0 0 1 5.66 2.34l7.21 7.22 19.64-52.37a8 8 0 0 1 14.65-.77l21.78 43.58h27.06a8.066 8.066 0 0 1 4.44 1.34z" fill="#026a23"/>
<rect x="55" y="95" width="35" height="180" fill ="#029532">
<animateMotion path="m0 5h280" begin="0s" dur="4s" repeatCount="indefinite" rotate="auto"/>
</rect>
</g></svg>