<svg xmlns="http://www.w3.org/2000/svg" height="512pt" version="1.1" viewBox="0 -44 512 512" width="512pt">
<g id="surface1">
<path d="M 178.152344 115.515625 C 172.632812 109.996094 166.734375 105.019531 160.746094 100.765625 C 154.761719 105.019531 148.863281 109.996094 143.339844 115.515625 C 137.820312 121.039062 132.84375 126.9375 128.589844 132.921875 C 132.84375 138.910156 137.820312 144.808594 143.339844 150.328125 C 148.863281 155.851562 154.761719 160.824219 160.746094 165.082031 C 166.730469 160.824219 172.632812 155.851562 178.152344 150.328125 C 183.675781 144.808594 188.648438 138.910156 192.90625 132.921875 C 188.648438 126.9375 183.675781 121.039062 178.152344 115.515625 Z M 178.152344 115.515625 "  />
<path d="M 199.039062 171.214844 C 196.171875 174.085938 193.222656 176.820312 190.222656 179.429688 C 197.542969 181.109375 203.480469 180.699219 206.003906 178.179688 C 208.523438 175.660156 208.933594 169.726562 207.257812 162.402344 C 204.667969 165.371094 201.9375 168.316406 199.039062 171.214844 Z M 199.039062 171.214844 "  />
<path d="M 122.453125 94.628906 C 125.351562 91.734375 128.296875 89.003906 131.265625 86.414062 C 128.335938 85.742188 125.625 85.402344 123.265625 85.402344 C 119.738281 85.402344 117.003906 86.15625 115.492188 87.667969 C 112.972656 90.1875 112.5625 96.121094 114.238281 103.441406 C 116.828125 100.472656 119.558594 97.527344 122.453125 94.628906 Z M 122.453125 94.628906 "  />
<path d="M 198.230469 85.402344 C 195.871094 85.402344 193.15625 85.746094 190.222656 86.417969 C 193.222656 89.023438 196.171875 91.761719 199.039062 94.628906 C 201.9375 97.527344 204.667969 100.472656 207.257812 103.441406 C 208.933594 96.121094 208.523438 90.1875 206.003906 87.667969 C 204.492188 86.15625 201.753906 85.402344 198.230469 85.402344 Z M 198.230469 85.402344 "  />
<path d="M 467.691406 0 L 44.308594 0 C 19.875 0 0 19.875 0 44.308594 L 0 236.308594 L 512 236.308594 L 512 44.308594 C 512 19.875 492.125 0 467.691406 0 Z M 226.890625 199.066406 C 219.546875 206.40625 209.589844 209.925781 198.175781 209.925781 C 186.753906 209.929688 173.871094 206.398438 160.683594 199.65625 C 155.667969 202.222656 150.65625 204.367188 145.726562 206.011719 C 137.722656 208.679688 130.167969 210 123.238281 210 C 111.675781 210 101.863281 206.320312 94.605469 199.066406 C 79.925781 184.382812 80.554688 159.265625 93.996094 132.921875 C 80.550781 106.578125 79.925781 81.464844 94.605469 66.78125 C 106.207031 55.183594 124.359375 52.714844 145.726562 59.835938 C 150.660156 61.480469 155.675781 63.625 160.695312 66.195312 C 187.058594 52.726562 212.199219 52.089844 226.890625 66.78125 C 241.570312 81.460938 240.941406 106.578125 227.5 132.921875 C 240.941406 159.265625 241.570312 184.382812 226.890625 199.066406 Z M 374.152344 206.769531 L 295.382812 206.769531 C 287.226562 206.769531 280.617188 200.15625 280.617188 192 C 280.617188 183.84375 287.226562 177.230469 295.382812 177.230469 L 374.152344 177.230469 C 382.308594 177.230469 388.921875 183.84375 388.921875 192 C 388.921875 200.15625 382.308594 206.769531 374.152344 206.769531 Z M 374.152344 147.691406 L 295.382812 147.691406 C 287.226562 147.691406 280.617188 141.078125 280.617188 132.921875 C 280.617188 124.765625 287.226562 118.152344 295.382812 118.152344 L 374.152344 118.152344 C 382.308594 118.152344 388.921875 124.765625 388.921875 132.921875 C 388.921875 141.078125 382.308594 147.691406 374.152344 147.691406 Z M 374.152344 88.617188 L 315.078125 88.617188 C 306.921875 88.617188 300.308594 82.003906 300.308594 73.847656 C 300.308594 65.691406 306.921875 59.078125 315.078125 59.078125 L 374.152344 59.078125 C 382.308594 59.078125 388.921875 65.691406 388.921875 73.847656 C 388.921875 82.003906 382.308594 88.617188 374.152344 88.617188 Z M 374.152344 88.617188 "  />
<path d="M 0 280.617188 C 0 305.046875 19.875 324.921875 44.308594 324.921875 L 467.691406 324.921875 C 492.125 324.921875 512 305.046875 512 280.617188 L 512 265.847656 L 0 265.847656 Z M 0 280.617188 " />
<path d="M 114.238281 162.402344 C 112.5625 169.722656 112.972656 175.65625 115.492188 178.175781 C 118.011719 180.695312 123.9375 181.109375 131.253906 179.433594 C 128.289062 176.847656 125.351562 174.109375 122.457031 171.214844 C 119.558594 168.316406 116.828125 165.371094 114.238281 162.402344 Z M 114.238281 162.402344 "  />
<path d="M 374.152344 393.847656 L 329.847656 393.847656 L 329.847656 354.460938 L 182.152344 354.460938 L 182.152344 393.847656 L 137.847656 393.847656 C 129.691406 393.847656 123.078125 400.457031 123.078125 408.617188 C 123.078125 416.773438 129.691406 423.382812 137.847656 423.382812 L 374.152344 423.382812 C 382.308594 423.382812 388.921875 416.773438 388.921875 408.617188 C 388.921875 400.457031 382.308594 393.847656 374.152344 393.847656 Z M 374.152344 393.847656 "  />
</g>
</svg>